<?xml version="1.0" encoding="UTF-8"?>
<svg xmlns="http://www.w3.org/2000/svg" xmlns:xlink="http://www.w3.org/1999/xlink" width="300px" height="98px" viewBox="0 0 226 74" version="1.1">
<defs>
<filter id="alpha" filterUnits="objectBoundingBox" x="0%" y="0%" width="100%" height="100%">
  <feColorMatrix type="matrix" in="SourceGraphic" values="0 0 0 0 1 0 0 0 0 1 0 0 0 0 1 0 0 0 1 0"/>
</filter>
<mask id="mask0">
  <g filter="url(#alpha)">
<rect x="0" y="0" width="226" height="74" style="fill:rgb(0%,0%,0%);fill-opacity:0.8;stroke:none;"/>
  </g>
</mask>
<clipPath id="clip1">
  <rect x="0" y="0" width="226" height="74"/>
</clipPath>
<g id="surface5" clip-path="url(#clip1)">
<path style=" stroke:none;fill-rule:nonzero;fill:rgb(100%,100%,100%);fill-opacity:1;" d="M 9.988281 58.597656 C 9.367188 58.820312 8.136719 59.1875 6.679688 59.1875 C 5.050781 59.1875 3.707031 58.773438 2.652344 57.765625 C 1.726562 56.867188 1.152344 55.429688 1.152344 53.75 C 1.167969 50.53125 3.371094 48.179688 6.984375 48.179688 C 8.230469 48.179688 9.207031 48.453125 9.667969 48.675781 L 9.332031 49.8125 C 8.757812 49.554688 8.039062 49.347656 6.953125 49.347656 C 4.332031 49.347656 2.621094 50.980469 2.621094 53.683594 C 2.621094 56.421875 4.265625 58.035156 6.777344 58.035156 C 7.6875 58.035156 8.308594 57.910156 8.628906 57.75 L 8.628906 54.53125 L 6.441406 54.53125 L 6.441406 53.414062 L 9.988281 53.414062 Z M 9.988281 58.597656 "/>
<path style=" stroke:none;fill-rule:nonzero;fill:rgb(100%,100%,100%);fill-opacity:1;" d="M 12.929688 55.460938 C 12.960938 57.363281 14.175781 58.148438 15.582031 58.148438 C 16.589844 58.148438 17.199219 57.972656 17.722656 57.75 L 17.964844 58.757812 C 17.46875 58.980469 16.621094 59.234375 15.390625 59.234375 C 13.007812 59.234375 11.585938 57.667969 11.585938 55.332031 C 11.585938 52.996094 12.960938 51.15625 15.214844 51.15625 C 17.742188 51.15625 18.410156 53.378906 18.410156 54.804688 C 18.410156 55.09375 18.378906 55.316406 18.363281 55.460938 Z M 17.054688 54.453125 C 17.070312 53.554688 16.6875 52.164062 15.105469 52.164062 C 13.679688 52.164062 13.058594 53.476562 12.945312 54.453125 Z M 17.054688 54.453125 "/>
<path style=" stroke:none;fill-rule:nonzero;fill:rgb(100%,100%,100%);fill-opacity:1;" d="M 19.960938 57.636719 C 20.378906 57.90625 21.113281 58.195312 21.816406 58.195312 C 22.839844 58.195312 23.320312 57.683594 23.320312 57.042969 C 23.320312 56.371094 22.917969 56.003906 21.878906 55.621094 C 20.488281 55.125 19.835938 54.355469 19.835938 53.429688 C 19.835938 52.179688 20.839844 51.15625 22.503906 51.15625 C 23.285156 51.15625 23.972656 51.378906 24.40625 51.636719 L 24.054688 52.660156 C 23.75 52.46875 23.191406 52.210938 22.472656 52.210938 C 21.640625 52.210938 21.175781 52.691406 21.175781 53.269531 C 21.175781 53.910156 21.640625 54.195312 22.648438 54.582031 C 23.988281 55.09375 24.675781 55.765625 24.675781 56.917969 C 24.675781 58.277344 23.621094 59.238281 21.785156 59.238281 C 20.9375 59.238281 20.15625 59.027344 19.609375 58.707031 Z M 19.960938 57.636719 "/>
<path style=" stroke:none;fill-rule:nonzero;fill:rgb(100%,100%,100%);fill-opacity:1;" d="M 28.179688 49.109375 L 28.179688 51.332031 L 30.191406 51.332031 L 30.191406 52.402344 L 28.179688 52.402344 L 28.179688 56.578125 C 28.179688 57.539062 28.449219 58.085938 29.234375 58.085938 C 29.601562 58.085938 29.871094 58.035156 30.046875 57.988281 L 30.113281 59.042969 C 29.839844 59.15625 29.410156 59.238281 28.863281 59.238281 C 28.210938 59.238281 27.683594 59.027344 27.347656 58.644531 C 26.945312 58.226562 26.804688 57.539062 26.804688 56.628906 L 26.804688 52.40625 L 25.605469 52.40625 L 25.605469 51.332031 L 26.804688 51.332031 L 26.804688 49.476562 Z M 28.179688 49.109375 "/>
<path style=" stroke:none;fill-rule:nonzero;fill:rgb(100%,100%,100%);fill-opacity:1;" d="M 36.058594 59.078125 L 35.945312 58.101562 L 35.898438 58.101562 C 35.464844 58.707031 34.636719 59.253906 33.53125 59.253906 C 31.964844 59.253906 31.167969 58.148438 31.167969 57.027344 C 31.167969 55.15625 32.828125 54.132812 35.816406 54.148438 L 35.816406 53.988281 C 35.816406 53.347656 35.640625 52.195312 34.058594 52.195312 C 33.339844 52.195312 32.589844 52.421875 32.046875 52.773438 L 31.726562 51.84375 C 32.367188 51.429688 33.292969 51.15625 34.265625 51.15625 C 36.632812 51.15625 37.207031 52.773438 37.207031 54.324219 L 37.207031 57.21875 C 37.207031 57.890625 37.238281 58.546875 37.335938 59.078125 Z M 32.445312 50.003906 C 32.414062 48.964844 32.84375 48.339844 33.53125 48.339844 C 33.882812 48.339844 34.15625 48.484375 34.523438 48.691406 C 34.777344 48.835938 35.003906 48.964844 35.195312 48.964844 C 35.449219 48.964844 35.59375 48.820312 35.640625 48.277344 L 36.375 48.277344 C 36.410156 49.347656 36.042969 49.890625 35.289062 49.890625 C 34.953125 49.890625 34.652344 49.75 34.316406 49.574219 C 33.996094 49.378906 33.820312 49.285156 33.628906 49.285156 C 33.371094 49.285156 33.246094 49.554688 33.210938 50.003906 Z M 35.847656 55.125 C 34.316406 55.09375 32.574219 55.363281 32.574219 56.867188 C 32.574219 57.78125 33.179688 58.210938 33.898438 58.210938 C 34.90625 58.210938 35.546875 57.570312 35.769531 56.914062 C 35.816406 56.773438 35.847656 56.613281 35.847656 56.46875 Z M 35.847656 55.125 "/>
<path style=" stroke:none;fill-rule:nonzero;fill:rgb(100%,100%,100%);fill-opacity:1;" d="M 46.476562 55.140625 C 46.476562 58.003906 44.496094 59.253906 42.625 59.253906 C 40.53125 59.253906 38.917969 57.714844 38.917969 55.269531 C 38.917969 52.675781 40.613281 51.15625 42.753906 51.15625 C 44.976562 51.15625 46.476562 52.773438 46.476562 55.140625 Z M 40.339844 55.21875 C 40.339844 56.917969 41.316406 58.195312 42.691406 58.195312 C 44.03125 58.195312 45.039062 56.933594 45.039062 55.1875 C 45.039062 53.875 44.382812 52.210938 42.722656 52.210938 C 41.058594 52.210938 40.339844 53.75 40.339844 55.21875 Z M 40.339844 55.21875 "/>
<path style=" stroke:none;fill-rule:nonzero;fill:rgb(100%,100%,100%);fill-opacity:1;" d="M 58.320312 47.714844 L 58.320312 57.078125 C 58.320312 57.765625 58.335938 58.546875 58.386719 59.078125 L 57.121094 59.078125 L 57.058594 57.730469 L 57.027344 57.730469 C 56.59375 58.597656 55.652344 59.253906 54.390625 59.253906 C 52.519531 59.253906 51.082031 57.667969 51.082031 55.316406 C 51.066406 52.738281 52.664062 51.15625 54.550781 51.15625 C 55.730469 51.15625 56.53125 51.714844 56.882812 52.339844 L 56.914062 52.339844 L 56.914062 47.714844 Z M 56.914062 54.484375 C 56.914062 54.308594 56.898438 54.066406 56.851562 53.890625 C 56.644531 52.996094 55.875 52.261719 54.820312 52.261719 C 53.367188 52.261719 52.503906 53.539062 52.503906 55.253906 C 52.503906 56.820312 53.269531 58.117188 54.789062 58.117188 C 55.730469 58.117188 56.59375 57.492188 56.851562 56.4375 C 56.898438 56.246094 56.914062 56.050781 56.914062 55.828125 Z M 56.914062 54.484375 "/>
<path style=" stroke:none;fill-rule:nonzero;fill:rgb(100%,100%,100%);fill-opacity:1;" d="M 61.4375 55.460938 C 61.46875 57.363281 62.683594 58.148438 64.089844 58.148438 C 65.097656 58.148438 65.707031 57.972656 66.234375 57.75 L 66.472656 58.757812 C 65.976562 58.980469 65.128906 59.234375 63.898438 59.234375 C 61.519531 59.234375 60.09375 57.667969 60.09375 55.332031 C 60.09375 52.996094 61.46875 51.15625 63.722656 51.15625 C 66.25 51.15625 66.921875 53.378906 66.921875 54.804688 C 66.921875 55.09375 66.886719 55.316406 66.871094 55.460938 Z M 65.5625 54.453125 C 65.578125 53.554688 65.195312 52.164062 63.613281 52.164062 C 62.1875 52.164062 61.566406 53.476562 61.453125 54.453125 Z M 65.5625 54.453125 "/>
<path style=" stroke:none;fill-rule:nonzero;fill:rgb(100%,100%,100%);fill-opacity:1;" d="M 76.332031 59.078125 L 76.222656 58.101562 L 76.175781 58.101562 C 75.742188 58.707031 74.910156 59.253906 73.808594 59.253906 C 72.242188 59.253906 71.441406 58.148438 71.441406 57.027344 C 71.441406 55.15625 73.105469 54.132812 76.09375 54.148438 L 76.09375 53.988281 C 76.09375 53.347656 75.917969 52.195312 74.335938 52.195312 C 73.617188 52.195312 72.867188 52.421875 72.320312 52.773438 L 72.003906 51.84375 C 72.640625 51.429688 73.570312 51.15625 74.542969 51.15625 C 76.910156 51.15625 77.484375 52.773438 77.484375 54.324219 L 77.484375 57.21875 C 77.484375 57.890625 77.515625 58.546875 77.613281 59.078125 Z M 76.125 55.125 C 74.589844 55.09375 72.847656 55.363281 72.847656 56.867188 C 72.847656 57.78125 73.457031 58.210938 74.175781 58.210938 C 75.183594 58.210938 75.820312 57.570312 76.046875 56.917969 C 76.09375 56.773438 76.125 56.613281 76.125 56.46875 Z M 76.125 55.125 "/>
<path style=" stroke:none;fill-rule:nonzero;fill:rgb(100%,100%,100%);fill-opacity:1;" d="M 85.269531 58.789062 C 84.902344 58.980469 84.085938 59.234375 83.046875 59.234375 C 80.714844 59.234375 79.195312 57.652344 79.195312 55.285156 C 79.195312 52.898438 80.824219 51.171875 83.351562 51.171875 C 84.179688 51.171875 84.917969 51.378906 85.300781 51.570312 L 84.980469 52.660156 C 84.644531 52.46875 84.117188 52.292969 83.351562 52.292969 C 81.578125 52.292969 80.617188 53.605469 80.617188 55.21875 C 80.617188 57.011719 81.769531 58.117188 83.300781 58.117188 C 84.101562 58.117188 84.628906 57.90625 85.027344 57.730469 Z M 85.269531 58.789062 "/>
<path style=" stroke:none;fill-rule:nonzero;fill:rgb(100%,100%,100%);fill-opacity:1;" d="M 91.199219 59.078125 L 91.085938 58.101562 L 91.039062 58.101562 C 90.605469 58.707031 89.777344 59.253906 88.671875 59.253906 C 87.105469 59.253906 86.308594 58.148438 86.308594 57.027344 C 86.308594 55.15625 87.96875 54.132812 90.957031 54.148438 L 90.957031 53.988281 C 90.957031 53.347656 90.78125 52.195312 89.199219 52.195312 C 88.480469 52.195312 87.730469 52.421875 87.1875 52.773438 L 86.867188 51.84375 C 87.507812 51.429688 88.433594 51.15625 89.40625 51.15625 C 91.773438 51.15625 92.347656 52.773438 92.347656 54.324219 L 92.347656 57.21875 C 92.347656 57.890625 92.378906 58.546875 92.476562 59.078125 Z M 90.988281 55.125 C 89.457031 55.09375 87.714844 55.363281 87.714844 56.867188 C 87.714844 57.78125 88.320312 58.210938 89.039062 58.210938 C 90.046875 58.210938 90.6875 57.570312 90.910156 56.917969 C 90.957031 56.773438 90.988281 56.613281 90.988281 56.46875 Z M 90.988281 55.125 "/>
<path style=" stroke:none;fill-rule:nonzero;fill:rgb(100%,100%,100%);fill-opacity:1;" d="M 101.300781 47.714844 L 101.300781 57.078125 C 101.300781 57.765625 101.316406 58.546875 101.363281 59.078125 L 100.101562 59.078125 L 100.035156 57.730469 L 100.003906 57.730469 C 99.574219 58.597656 98.628906 59.253906 97.367188 59.253906 C 95.496094 59.253906 94.058594 57.667969 94.058594 55.316406 C 94.042969 52.738281 95.640625 51.15625 97.527344 51.15625 C 98.710938 51.15625 99.507812 51.714844 99.859375 52.339844 L 99.894531 52.339844 L 99.894531 47.714844 Z M 99.894531 54.484375 C 99.894531 54.308594 99.875 54.066406 99.828125 53.890625 C 99.621094 52.996094 98.855469 52.261719 97.796875 52.261719 C 96.34375 52.261719 95.480469 53.539062 95.480469 55.253906 C 95.480469 56.820312 96.25 58.117188 97.765625 58.117188 C 98.710938 58.117188 99.574219 57.492188 99.828125 56.4375 C 99.875 56.246094 99.894531 56.050781 99.894531 55.828125 Z M 99.894531 54.484375 "/>
<path style=" stroke:none;fill-rule:nonzero;fill:rgb(100%,100%,100%);fill-opacity:1;" d="M 104.417969 55.460938 C 104.449219 57.363281 105.664062 58.148438 107.070312 58.148438 C 108.074219 58.148438 108.683594 57.972656 109.210938 57.75 L 109.449219 58.757812 C 108.953125 58.980469 108.109375 59.234375 106.878906 59.234375 C 104.496094 59.234375 103.074219 57.667969 103.074219 55.332031 C 103.074219 52.996094 104.449219 51.15625 106.703125 51.15625 C 109.226562 51.15625 109.898438 53.378906 109.898438 54.804688 C 109.898438 55.09375 109.867188 55.316406 109.851562 55.460938 Z M 108.539062 54.453125 C 108.554688 53.554688 108.171875 52.164062 106.589844 52.164062 C 105.167969 52.164062 104.542969 53.476562 104.433594 54.453125 Z M 107.132812 47.988281 L 108.667969 50.277344 L 107.597656 50.277344 L 106.667969 48.757812 L 106.636719 48.757812 L 105.710938 50.277344 L 104.65625 50.277344 L 106.171875 47.988281 Z M 107.132812 47.988281 "/>
<path style=" stroke:none;fill-rule:nonzero;fill:rgb(100%,100%,100%);fill-opacity:1;" d="M 111.640625 53.429688 C 111.640625 52.628906 111.625 51.972656 111.578125 51.332031 L 112.808594 51.332031 L 112.871094 52.582031 L 112.917969 52.582031 C 113.351562 51.84375 114.070312 51.15625 115.347656 51.15625 C 116.402344 51.15625 117.203125 51.796875 117.539062 52.707031 L 117.570312 52.707031 C 117.808594 52.277344 118.113281 51.941406 118.433594 51.699219 C 118.894531 51.347656 119.40625 51.15625 120.144531 51.15625 C 121.164062 51.15625 122.683594 51.828125 122.683594 54.515625 L 122.683594 59.074219 L 121.308594 59.074219 L 121.308594 54.691406 C 121.308594 53.203125 120.765625 52.308594 119.632812 52.308594 C 118.832031 52.308594 118.207031 52.898438 117.96875 53.589844 C 117.90625 53.78125 117.855469 54.035156 117.855469 54.292969 L 117.855469 59.074219 L 116.484375 59.074219 L 116.484375 54.4375 C 116.484375 53.203125 115.9375 52.308594 114.867188 52.308594 C 113.988281 52.308594 113.351562 53.011719 113.125 53.714844 C 113.046875 53.925781 113.015625 54.164062 113.015625 54.402344 L 113.015625 59.074219 L 111.640625 59.074219 Z M 111.640625 53.429688 "/>
<path style=" stroke:none;fill-rule:nonzero;fill:rgb(100%,100%,100%);fill-opacity:1;" d="M 126.535156 49.15625 C 126.550781 49.636719 126.199219 50.019531 125.640625 50.019531 C 125.144531 50.019531 124.792969 49.636719 124.792969 49.15625 C 124.792969 48.660156 125.160156 48.277344 125.671875 48.277344 C 126.199219 48.277344 126.535156 48.660156 126.535156 49.15625 Z M 124.96875 59.078125 L 124.96875 51.332031 L 126.375 51.332031 L 126.375 59.078125 Z M 124.96875 59.078125 "/>
<path style=" stroke:none;fill-rule:nonzero;fill:rgb(100%,100%,100%);fill-opacity:1;" d="M 132.992188 59.078125 L 132.882812 58.101562 L 132.832031 58.101562 C 132.402344 58.707031 131.570312 59.253906 130.46875 59.253906 C 128.902344 59.253906 128.101562 58.148438 128.101562 57.027344 C 128.101562 55.15625 129.765625 54.132812 132.753906 54.148438 L 132.753906 53.988281 C 132.753906 53.347656 132.578125 52.195312 130.996094 52.195312 C 130.277344 52.195312 129.523438 52.421875 128.980469 52.773438 L 128.664062 51.84375 C 129.300781 51.429688 130.226562 51.15625 131.203125 51.15625 C 133.570312 51.15625 134.144531 52.773438 134.144531 54.324219 L 134.144531 57.21875 C 134.144531 57.890625 134.175781 58.546875 134.273438 59.078125 Z M 132.785156 55.125 C 131.25 55.09375 129.507812 55.363281 129.507812 56.867188 C 129.507812 57.78125 130.117188 58.210938 130.835938 58.210938 C 131.84375 58.210938 132.480469 57.570312 132.707031 56.917969 C 132.753906 56.773438 132.785156 56.613281 132.785156 56.46875 Z M 132.785156 55.125 "/>
</g>
</defs>
<g id="surface1">
<path style=" stroke:none;fill-rule:evenodd;fill:rgb(98.431373%,72.941176%,0%);fill-opacity:1;" d="M 226 49.980469 C 216.875 64.386719 200.808594 73.949219 182.511719 73.949219 C 164.214844 73.949219 148.160156 64.386719 139.03125 49.980469 C 149.753906 59.867188 165.265625 66.078125 182.511719 66.078125 C 199.761719 66.078125 215.277344 59.863281 226 49.980469 "/>
<path style=" stroke:none;fill-rule:nonzero;fill:rgb(100%,100%,100%);fill-opacity:1;" d="M 1.28125 40.460938 L 1.28125 34.804688 C 4.277344 36.003906 7.730469 36.605469 11.652344 36.601562 C 14.574219 36.601562 16.035156 35.664062 16.035156 33.78125 C 16.035156 32.0625 15.046875 31.210938 13.085938 31.210938 L 8.207031 31.210938 C 2.734375 31.210938 0 28.46875 0 22.984375 C 0 17.5 3.996094 14.527344 11.988281 14.527344 C 15.242188 14.503906 18.476562 15.023438 21.558594 16.058594 L 21.558594 21.714844 C 18.5625 20.511719 15.320312 19.917969 11.804688 19.917969 C 8.292969 19.917969 6.292969 20.855469 6.292969 22.742188 C 6.289062 24.445312 7.355469 25.300781 9.503906 25.300781 L 13.855469 25.300781 C 19.835938 25.300781 22.828125 28.039062 22.832031 33.515625 C 22.832031 39.175781 19.019531 42 11.394531 41.996094 C 7.644531 41.996094 4.273438 41.480469 1.28125 40.460938 M 27.578125 41.746094 L 27.578125 14.773438 L 32.839844 14.773438 L 33.636719 18.164062 C 36.726562 15.902344 39.800781 14.773438 42.84375 14.773438 C 46.234375 14.773438 48.640625 16.003906 50.0625 18.472656 C 53.492188 16 56.714844 14.765625 59.726562 14.773438 C 65.410156 14.773438 68.25 18.1875 68.25 25.015625 L 68.25 41.746094 L 61.441406 41.746094 L 61.441406 24.769531 C 61.441406 21.78125 60.179688 20.285156 57.652344 20.28125 C 55.628906 20.28125 53.515625 21.445312 51.308594 23.769531 L 51.308594 41.746094 L 44.515625 41.746094 L 44.515625 24.835938 C 44.515625 21.792969 43.269531 20.269531 40.769531 20.269531 C 38.613281 20.269531 36.484375 21.433594 34.386719 23.757812 L 34.386719 41.746094 Z M 73.171875 33.347656 C 73.171875 27.816406 77.070312 25.054688 84.867188 25.054688 C 86.964844 25.03125 89.0625 25.203125 91.128906 25.5625 L 91.128906 23.789062 C 91.128906 21.378906 88.792969 20.171875 84.125 20.171875 C 81.152344 20.175781 78.199219 20.609375 75.351562 21.457031 L 75.351562 16.058594 C 78.199219 15.214844 81.152344 14.785156 84.125 14.777344 C 93.328125 14.777344 97.929688 17.738281 97.921875 23.660156 L 97.921875 41.746094 L 94.484375 41.746094 L 91.5625 39.84375 C 89.269531 41.105469 86.691406 41.757812 84.078125 41.746094 C 76.804688 41.746094 73.171875 38.945312 73.175781 33.347656 M 91.132812 30.699219 C 89.417969 30.355469 87.332031 30.191406 84.871094 30.191406 C 81.597656 30.1875 79.964844 31.210938 79.964844 33.257812 C 79.964844 35.308594 81.332031 36.335938 84.074219 36.34375 C 86.839844 36.34375 89.191406 35.644531 91.128906 34.238281 Z M 104.546875 41.746094 L 104.546875 14.773438 L 109.808594 14.773438 L 110.648438 18.210938 C 113.015625 15.921875 115.515625 14.777344 118.148438 14.773438 L 118.148438 20.269531 C 115.613281 20.269531 113.347656 21.40625 111.351562 23.679688 L 111.351562 41.746094 Z M 122.355469 10.40625 L 127.386719 10.40625 L 128.417969 14.773438 L 134.671875 14.773438 L 134.671875 20.164062 L 129.164062 20.164062 L 129.164062 32.570312 C 129.164062 35.085938 130.25 36.347656 132.421875 36.347656 L 134.671875 36.347656 L 134.671875 41.746094 L 129.140625 41.746094 C 124.617188 41.746094 122.355469 39.320312 122.355469 34.472656 Z M 122.355469 10.40625 "/>
<path style=" stroke:none;fill-rule:nonzero;fill:rgb(98.431373%,72.941176%,0%);fill-opacity:1;" d="M 145.925781 0.0507812 L 155.167969 0.0507812 L 155.167969 16.109375 C 157.9375 14.25 161.015625 13.316406 164.410156 13.316406 C 174.828125 13.316406 180.035156 19.183594 180.035156 30.914062 C 180.035156 43.625 174.074219 49.980469 162.144531 49.980469 C 157.121094 49.980469 151.714844 49.480469 145.925781 48.476562 Z M 155.167969 41.496094 C 157.285156 42.171875 159.738281 42.507812 162.527344 42.507812 C 168.105469 42.507812 170.898438 38.5625 170.898438 30.671875 C 170.898438 24.222656 168.492188 21 163.675781 21 C 160.5625 21 157.726562 21.628906 155.167969 22.886719 Z M 155.167969 41.496094 "/>
<path style=" stroke:none;fill-rule:nonzero;fill:rgb(98.431373%,72.941176%,0%);fill-opacity:1;" d="M 194.46875 0.0507812 L 194.46875 7.382812 L 185.226562 7.382812 L 185.226562 0.0507812 Z M 194.46875 13.316406 L 194.46875 49.980469 L 185.226562 49.980469 L 185.226562 13.316406 Z M 194.46875 13.316406 "/>
<path style=" stroke:none;fill-rule:nonzero;fill:rgb(98.431373%,72.941176%,0%);fill-opacity:1;" d="M 200.878906 7.382812 L 207.714844 7.382812 L 209.109375 13.316406 L 218.316406 13.316406 L 218.316406 20.648438 L 210.121094 20.648438 L 210.121094 37.515625 C 210.121094 40.933594 211.597656 42.644531 214.550781 42.644531 L 218.316406 42.644531 L 218.316406 49.976562 L 210.085938 49.976562 C 203.949219 49.976562 200.878906 46.683594 200.878906 40.097656 Z M 200.878906 7.382812 "/>
<use xlink:href="#surface5" mask="url(#mask0)"/>
</g>
</svg>
