<?xml version="1.0" encoding="UTF-8"?><svg id="b" xmlns="http://www.w3.org/2000/svg" viewBox="0 0 1546 504.98"><g id="c"><path d="m1546,341.2c-62.42,98.42-172.33,163.78-297.49,163.78s-235-65.36-297.45-163.79c73.35,67.56,179.46,110,297.45,110s224.13-42.47,297.49-110" style="fill:#fbba00; fill-rule:evenodd; stroke-width:0px;"/><path d="m8.77,276.13v-38.64c20.48,8.2,44.12,12.3,70.93,12.29,20,0,30-6.43,30-19.29,0-11.74-6.77-17.55-20.19-17.55h-33.37c-37.43-.01-56.14-18.75-56.14-56.22s27.33-57.8,82-57.8c22.26-.15,44.38,3.39,65.48,10.48v38.64c-20.5-8.21-42.69-12.27-66.72-12.27s-37.7,6.41-37.7,19.29c-.04,11.65,7.27,17.48,21.94,17.49h29.77c40.92,0,61.39,18.71,61.42,56.13,0,38.67-26.08,57.98-78.25,57.94-25.64,0-48.7-3.5-69.17-10.49m179.88,8.79V100.6h36l5.44,23.18c21.14-15.45,42.18-23.18,63-23.18,23.19,0,39.65,8.43,49.36,25.28,23.48-16.88,45.52-25.31,66.12-25.28,38.88,0,58.32,23.33,58.31,70v114.32h-46.57v-116c0-20.43-8.64-30.65-25.93-30.68-13.84,0-28.3,7.95-43.39,23.85v122.83h-46.47v-115.54c0-20.79-8.54-31.2-25.63-31.22-14.76,0-29.32,7.95-43.67,23.85v122.91h-46.57Zm311.89-57.39c0-37.79,26.67-56.67,80-56.66,14.36-.15,28.7,1.01,42.85,3.46v-12.1c0-16.47-15.98-24.72-47.93-24.73-20.32.03-40.53,2.99-60,8.79v-36.9c19.48-5.77,39.68-8.71,60-8.75,62.97,0,94.44,20.23,94.4,60.7v123.58h-23.52l-20-13c-15.69,8.61-33.31,13.08-51.2,13-49.74,0-74.6-19.13-74.58-57.39m122.86-18.1c-11.75-2.33-26-3.46-42.85-3.46-22.38-.03-33.57,6.95-33.57,20.95s9.37,21.03,28.11,21.09c18.92,0,35.01-4.79,48.28-14.38l.03-24.2Zm91.75,75.49V100.6h36l5.74,23.49c16.19-15.63,33.29-23.46,51.3-23.49v37.56c-17.33,0-32.83,7.77-46.5,23.3v123.46h-46.54Zm121.83-214.15h34.4l7.07,29.83h42.78v36.86h-37.68v84.76c0,17.19,7.43,25.8,22.28,25.82h15.4v36.88h-37.85c-30.93,0-46.4-16.57-46.4-49.71V70.77Z" style="fill:#fff; stroke-width:0px;"/><path d="m998.23,0h63.23v109.75c18.93-12.72,40-19.09,63.23-19.09,71.26,0,106.89,40.08,106.89,120.25,0,86.85-40.8,130.27-122.4,130.27-34.36,0-71.34-3.42-110.95-10.26V0Zm63.23,283.21c14.47,4.62,31.26,6.92,50.34,6.92,38.17,0,57.26-26.96,57.26-80.88,0-44.06-16.46-66.09-49.39-66.09-21.32,0-40.72,4.29-58.22,12.88v127.17Z" style="fill:#fbba00; stroke-width:0px;"/><path d="m1330.31,0v50.1h-63.23V0h63.23Zm0,90.67v250.52h-63.23V90.67h63.23Z" style="fill:#fbba00; stroke-width:0px;"/><path d="m1374.16,50.1h46.76l9.54,40.56h62.99v50.1h-56.07v115.24c0,23.38,10.1,35.07,30.3,35.07h25.77v50.1h-56.31c-41.99,0-62.99-22.51-62.99-67.52V50.1Z" style="fill:#fbba00; stroke-width:0px;"/></g></svg>